<svg xmlns="http://www.w3.org/2000/svg" version="1.1" xmlns:xlink="http://www.w3.org/1999/xlink" width="1500" height="1500" viewBox="0 0 1500 1500"><rect width="1500" height="1500" x="0" y="0" id="background" stroke="transparent" fill="#ffffff"></rect><svg xml:space="preserve" width="1000" height="1000" data-version="2" data-id="lg_EHyj1Vm8cc15Cysj4l" viewBox="0 0 777 268" x="250" y="250"><rect width="100%" height="100%" fill="transparent"></rect><path fill="#077fa4" d="M296.262 38.281q33.58 0 33.58 31.99t-33.58 31.99h-27.71v-63.98zm-7.16 48.64h6.79q12.93 0 12.93-13.86v-5.58q0-13.86-12.93-13.86h-6.79Z"></path><rect width="61.29" height="63.98" x="-30.64" y="-31.99" fill="none" rx="0" ry="0" transform="translate(299.7 70.77)"></rect><path fill="#077fa4" d="M364.992 52.041q12.93 0 20.32 6.56 7.4 6.55 7.4 19.11 0 12.55-7.4 19.11-7.39 6.56-20.32 6.56t-20.27-6.51q-7.35-6.51-7.35-19.16t7.35-19.16q7.34-6.51 20.27-6.51m0 12.56q-9.11 0-9.11 10.51v5.3q0 10.41 9.11 10.41 9.21 0 9.21-10.41v-5.3q0-10.51-9.21-10.51"></path><rect width="55.34" height="51.34" x="-27.67" y="-25.67" fill="none" rx="0" ry="0" transform="translate(365.54 78.21)"></rect><path fill="#077fa4" d="M435.492 52.041q8.55 0 12.83 4.74 4.28 4.75 4.28 13.68v31.8h-18.51v-29.57q0-3.16-1.63-5.07-1.62-1.91-4.6-1.91-3.44 0-5.58 2.23-2.14 2.24-2.14 5.49v28.83h-18.51v-49.1h15.16l1.21 7.44q2.88-3.91 7.58-6.23 4.7-2.33 9.91-2.33"></path><rect width="50.97" height="50.22" x="-25.48" y="-25.11" fill="none" rx="0" ry="0" transform="translate(427.62 77.65)"></rect><path fill="#077fa4" d="M487.942 52.041q11.25 0 18.32 3.77 7.07 3.76 7.07 12.23v19.16q0 1.58.74 2.6t2.23 1.02h3.35v10.7q-.28.18-1.44.6t-3.3.84q-2.14.42-4.93.42-5.4 0-8.88-1.63-3.49-1.63-4.79-4.51-3.54 2.79-7.91 4.46-4.37 1.68-10.23 1.68-17.3 0-17.3-13.77 0-7.16 3.86-10.92 3.86-3.77 11.12-5.17 7.25-1.39 18.97-1.39v-2.42q0-2.88-2-4.37-2-1.49-5.16-1.49-2.88 0-4.98 1.03-2.09 1.02-2.09 3.25v.37h-18.23q-.09-.46-.09-1.3 0-6.97 6.65-11.07 6.65-4.09 19.02-4.09m6.88 28.83q-7.91 0-11.67 1.72-3.77 1.72-3.77 4.61 0 4.65 6.33 4.65 3.62 0 6.37-1.96 2.74-1.95 2.74-4.83z"></path><rect width="58.78" height="51.34" x="-29.39" y="-25.67" fill="none" rx="0" ry="0" transform="translate(490.76 78.21)"></rect><path fill="#077fa4" d="M556.852 53.161v12.55h-10.42v18.7q0 3.34 1.12 4.88 1.12 1.53 4.09 1.53h5.21v10.88q-2.23.75-5.77 1.21-3.53.47-6.13.47-8.19 0-12.61-2.98-4.41-2.97-4.41-10.14v-24.55h-6.88v-12.55h7.62l4-14.88h13.76v14.88Z"></path><rect width="35.8" height="65.1" x="-17.9" y="-32.55" fill="none" rx="0" ry="0" transform="translate(539.45 71.33)"></rect><path fill="#077fa4" d="M566.062 47.391v-12.55h18.5v12.55Zm0 54.87v-49.1h18.5v49.1Z"></path><rect width="18.5" height="67.42" x="-9.25" y="-33.71" fill="none" rx="0" ry="0" transform="translate(575.81 69.05)"></rect><path fill="#077fa4" d="M621.762 52.041q12.93 0 20.32 6.56 7.4 6.55 7.4 19.11 0 12.55-7.4 19.11-7.39 6.56-20.32 6.56-12.92 0-20.27-6.51t-7.35-19.16q0-12.65 7.35-19.16t20.27-6.51m0 12.56q-9.11 0-9.11 10.51v5.3q0 10.41 9.11 10.41 9.21 0 9.21-10.41v-5.3q0-10.51-9.21-10.51"></path><rect width="55.34" height="51.34" x="-27.67" y="-25.67" fill="none" rx="0" ry="0" transform="translate(622.31 78.21)"></rect><path fill="#077fa4" d="M692.262 52.041q8.55 0 12.83 4.74 4.28 4.75 4.28 13.68v31.8h-18.51v-29.57q0-3.16-1.62-5.07-1.63-1.91-4.61-1.91-3.44 0-5.58 2.23-2.14 2.24-2.14 5.49v28.83h-18.5v-49.1h15.16l1.2 7.44q2.89-3.91 7.58-6.23 4.7-2.33 9.91-2.33"></path><rect width="50.96" height="50.22" x="-25.48" y="-25.11" fill="none" rx="0" ry="0" transform="translate(684.4 77.65)"></rect><path fill="#077fa4" d="M743.782 52.041q9.86 0 16.69 3.86 6.84 3.86 6.84 11.95h-17.21q0-2.7-2.41-3.81-1.68-.93-4.19-.93-6.69 0-6.69 3.16 0 1.77 2.32 2.51 2.33.75 7.63 1.58 6.51.93 10.88 2.19 4.37 1.25 7.62 4.46 3.26 3.21 3.26 8.98 0 9.39-7.02 13.39t-18.37 4q-6.51 0-12.28-1.82-5.76-1.81-9.39-5.62-3.63-3.82-3.63-9.67h17.21v.37q.09 3.16 2.65 4.41 2.56 1.26 5.44 1.26 7.72 0 7.72-3.63 0-1.86-2.42-2.69-2.42-.84-7.9-1.77-6.61-1.12-10.84-2.42-4.23-1.3-7.39-4.42-3.16-3.11-3.16-8.69 0-9.02 6.83-12.84 6.84-3.81 17.81-3.81"></path><rect width="50.69" height="51.34" x="-25.34" y="-25.67" fill="none" rx="0" ry="0" transform="translate(743.68 78.21)"></rect><path fill="#077fa4" d="M364.902 176.551v47.62h-20.55v-47.62h-21.02v-16.37h62.49v16.37Z"></path><rect width="62.49" height="63.99" x="-31.25" y="-32" fill="none" rx="0" ry="0" transform="translate(355.08 192.68)"></rect><path fill="#077fa4" d="M419.772 173.851q2.14 0 3.81.51 1.68.52 1.68.61v15.53h-5.96q-5.76 0-8.32 2.98-2.56 2.97-2.56 8.83v21.86h-18.5v-49.11h15.15l1.21 7.44q1.68-4.28 5.3-6.46 3.63-2.19 8.19-2.19"></path><rect width="35.34" height="50.32" x="-17.67" y="-25.16" fill="none" rx="0" ry="0" transform="translate(408.1 199.51)"></rect><path fill="#077fa4" d="M457.062 173.951q11.25 0 18.32 3.76 7.07 3.77 7.07 12.23v19.16q0 1.58.74 2.6.75 1.03 2.24 1.03h3.34v10.69q-.27.19-1.44.61-1.16.41-3.3.83-2.14.42-4.93.42-5.39 0-8.88-1.63-3.49-1.62-4.79-4.51-3.53 2.79-7.9 4.47-4.37 1.67-10.23 1.67-17.3 0-17.3-13.76 0-7.16 3.86-10.93 3.86-3.77 11.11-5.16 7.26-1.4 18.97-1.4v-2.41q0-2.89-2-4.38-2-1.48-5.16-1.48-2.88 0-4.97 1.02-2.1 1.02-2.1 3.25v.38h-18.22q-.1-.47-.1-1.31 0-6.97 6.65-11.06 6.65-4.09 19.02-4.09m6.88 28.83q-7.9 0-11.67 1.72-3.76 1.72-3.76 4.6 0 4.65 6.32 4.65 3.63 0 6.37-1.95 2.74-1.96 2.74-4.84z"></path><rect width="58.77" height="51.33" x="-29.39" y="-25.66" fill="none" rx="0" ry="0" transform="translate(459.89 200.12)"></rect><path fill="#077fa4" d="M520.212 173.951q12.09 0 19.57 5.16 7.49 5.16 7.49 15.76h-17.95q0-8.37-9.11-8.37-9.12 0-9.12 10.51v5.3q0 10.42 9.49 10.42t9.49-8.56h17.2q0 10.7-7.49 15.9-7.48 5.21-19.57 5.21-12.93 0-20.28-6.51-7.34-6.51-7.34-19.16 0-12.64 7.34-19.15 7.35-6.51 20.28-6.51"></path><rect width="54.68" height="51.33" x="-27.34" y="-25.66" fill="none" rx="0" ry="0" transform="translate(520.43 200.12)"></rect><path fill="#077fa4" d="M589.492 175.061h21.58l-18.14 19.81 18.6 29.3h-21.01l-10.33-16.84-6.41 6.23v10.61h-18.51v-67.52h18.51v37.2Z"></path><rect width="56.26" height="67.52" x="-28.13" y="-33.76" fill="none" rx="0" ry="0" transform="translate(583.9 190.91)"></rect><path fill="#077fa4" d="M639.532 173.951q13.48 0 20.6 6.32 7.11 6.32 7.11 19.34v3.17h-36.83q0 5.3 2.37 7.99 2.38 2.7 7.49 2.7 4.65 0 6.84-1.95 2.18-1.96 2.18-5.21h17.95q0 8.93-6.79 13.95t-19.81 5.02q-13.67 0-21.2-6.37-7.53-6.37-7.53-19.3 0-12.64 7.34-19.15 7.35-6.51 20.28-6.51m.74 11.81q-8.74 0-9.76 8.27h18.04q0-3.81-2.19-6.04-2.18-2.23-6.09-2.23"></path><rect width="55.33" height="51.33" x="-27.66" y="-25.66" fill="none" rx="0" ry="0" transform="translate(640.08 200.12)"></rect><path fill="#077fa4" d="M706.022 173.851q2.14 0 3.82.51 1.67.52 1.67.61v15.53h-5.95q-5.77 0-8.33 2.98-2.55 2.97-2.55 8.83v21.86h-18.51v-49.11h15.16l1.21 7.44q1.67-4.28 5.3-6.46 3.63-2.19 8.18-2.19"></path><rect width="35.34" height="50.32" x="-17.67" y="-25.16" fill="none" rx="0" ry="0" transform="translate(694.34 199.51)"></rect><circle r="127.18" fill="#a0ba77" stroke="#f2dfcf" stroke-width="9" transform="translate(139.16 134)"></circle><path fill="#f2dfcf" d="M93.63 197.952s17.764-9.296 26.652-4.847c8.887 4.448 33.313 10.911 47.973 9.7 14.66-1.212 38.199-20.608 42.642-27.071 4.444-6.464-5.773-7.271-15.99-2.02s-43.083 15.76-58.631 0c0 0 35.977 3.232 37.31 0 1.335-3.232-3.997-8.483-31.979-14.547-27.981-6.06-47.973 0-47.973 0zm-31.98-38.776h21.326v41.618H61.65zm67.97-42.262a14.815 14.815 0 0 1-2.565-6.083l-11.165 1.236c.855 5.787 2.823 10.273 5.904 13.443 3.077 3.176 7.084 5.074 12.02 5.689v8.023h6.201v-8.244c5.562-.822 9.902-3.053 13.026-6.703 3.119-3.64 4.683-8.122 4.683-13.444 0-4.763-1.245-8.666-3.725-11.705s-7.145-5.52-13.989-7.431V74.46c2.767 1.236 4.477 3.584 5.135 7.05l10.822-1.455c-.737-4.406-2.447-7.93-5.134-10.56-2.678-2.63-6.285-4.223-10.823-4.786v-4.36h-6.2v4.364c-4.904.498-8.836 2.391-11.786 5.665-2.954 3.279-4.424 7.333-4.424 12.147 0 4.763 1.3 8.813 3.912 12.148 2.612 3.34 6.708 5.829 12.298 7.473v18.475c-1.54-.766-2.936-2.002-4.19-3.707m10.395-12.87c2.57.76 4.41 1.86 5.543 3.283 1.123 1.423 1.686 3.124 1.686 5.092a8.803 8.803 0 0 1-7.229 8.817zM129.662 86.34a7.563 7.563 0 0 1-1.367-4.345c0-1.705.498-3.26 1.494-4.674 1-1.41 2.34-2.41 4.02-2.997v15.252c-1.85-.817-3.236-1.902-4.147-3.236"></path></svg></svg>